ffmpeg started on 2025-05-28 at 10:35:14
Report written to "D:\Convert\FFMetrics\reports\psnr_report-6.txt"
Log level: 32
Command line:
ffmpeg -hide_banner -nostdin -i "G:\\\xc0\xed\xe8\xec\xe5\\\xce\xed\xe3\xee\xe8\xed\xe3\xe8\\!_36_\xce\xf1\xe5\xed\xfc_2024\\JamClub\\MF \xcf\xf0\xe8\xe7\xf0\xe0\xea\\\xd2\xc2-1\\[JAMCLUB] MF Ghost - 09 (1080p)_HEVC.mkv" -i "G:\\\xc0\xed\xe8\xec\xe5\\\xce\xed\xe3\xee\xe8\xed\xe3\xe8\\!_36_\xce\xf1\xe5\xed\xfc_2024\\JamClub\\MF \xcf\xf0\xe8\xe7\xf0\xe0\xea\\\xd2\xc2-1\\[JAMCLUB] MF Ghost - 09 (1080p).mp4" -lavfi "[0:v]settb=AVTB,setpts=PTS-STARTPTS,format=pix_fmts=yuv420p10,fps=24000/1001,scale=1920:1080:flags=bicubic[main];[1:v]settb=AVTB,setpts=PTS-STARTPTS,format=pix_fmts=yuv420p,fps=24000/1001,scale=1920:1080:flags=bicubic[ref];[main][ref]psnr=eof_action=endall:stats_file='D\\:/Convert/FFMetrics/logs/psnr_logfile-6.txt'" -f null -
Input #0, matroska,webm, from 'G:\Аниме\Онгоинги\!_36_Осень_2024\JamClub\MF Призрак\ТВ-1\[JAMCLUB] MF Ghost - 09 (1080p)_HEVC.mkv':
  Metadata:
    COMPATIBLE_BRANDS: isomiso2avc1mp41
    MAJOR_BRAND     : isom
    MINOR_VERSION   : 512
    ENCODER         : Lavf61.7.100
  Duration: 00:24:02.28, start: -0.021000, bitrate: 2405 kb/s
  Stream #0:0: Video: hevc (Main 10), yuv420p10le(tv, bt709, progressive), 1920x1080 [SAR 1:1 DAR 16:9], 23.98 fps, 23.98 tbr, 1k tbn (default)
      Metadata:
        HANDLER_NAME    : VideoHandler
        VENDOR_ID       : [0][0][0][0]
        ENCODER         : Lavc61.19.100 libx265
        BPS             : 2206360
        DURATION        : 00:24:02.148708333
        NUMBER_OF_FRAMES: 34577
        NUMBER_OF_BYTES : 397737380
        _STATISTICS_WRITING_APP: mkvpropedit v66.0.0 ('Josie') 64-bit
        _STATISTICS_WRITING_DATE_UTC: 2025-05-27 09:59:55
        _STATISTICS_TAGS: BPS DURATION NUMBER_OF_FRAMES NUMBER_OF_BYTES
  Stream #0:1: Audio: aac (LC), 48000 Hz, stereo, fltp (default)
      Metadata:
        HANDLER_NAME    : SoundHandler
        VENDOR_ID       : [0][0][0][0]
        ENCODER         : Lavc61.19.100 aac
        BPS             : 195594
        DURATION        : 00:24:02.261000000
        NUMBER_OF_FRAMES: 67607
        NUMBER_OF_BYTES : 35262269
        _STATISTICS_WRITING_APP: mkvpropedit v66.0.0 ('Josie') 64-bit
        _STATISTICS_WRITING_DATE_UTC: 2025-05-27 09:59:55
        _STATISTICS_TAGS: BPS DURATION NUMBER_OF_FRAMES NUMBER_OF_BYTES
Input #1, mov,mp4,m4a,3gp,3g2,mj2, from 'G:\Аниме\Онгоинги\!_36_Осень_2024\JamClub\MF Призрак\ТВ-1\[JAMCLUB] MF Ghost - 09 (1080p).mp4':
  Metadata:
    major_brand     : isom
    minor_version   : 512
    compatible_brands: isomiso2avc1mp41
    encoder         : Lavf60.10.100
  Duration: 00:24:02.26, start: 0.000000, bitrate: 5127 kb/s
  Stream #1:0[0x1](und): Video: h264 (High) (avc1 / 0x31637661), yuv420p(tv, bt709, progressive), 1920x1080 [SAR 1:1 DAR 16:9], 4866 kb/s, 23.98 fps, 23.98 tbr, 24k tbn (default)
      Metadata:
        handler_name    : VideoHandler
        vendor_id       : [0][0][0][0]
        encoder         : Lavc60.23.100 h264_nvenc
  Stream #1:1[0x2](und): Audio: aac (LC) (mp4a / 0x6134706D), 48000 Hz, stereo, fltp, 255 kb/s (default)
      Metadata:
        handler_name    : SoundHandler
        vendor_id       : [0][0][0][0]
Stream mapping:
  Stream #0:0 (hevc) -> settb:default
  Stream #1:0 (h264) -> settb:default
  psnr:default -> Stream #0:0 (wrapped_avframe)
  Stream #0:1 -> #0:1 (aac (native) -> pcm_s16le (native))
Output #0, null, to 'pipe:':
  Metadata:
    COMPATIBLE_BRANDS: isomiso2avc1mp41
    MAJOR_BRAND     : isom
    MINOR_VERSION   : 512
    encoder         : Lavf61.7.100
  Stream #0:0: Video: wrapped_avframe, yuv420p10le(tv, bt709, progressive), 1920x1080 [SAR 1:1 DAR 16:9], q=2-31, 200 kb/s, 23.98 fps, 23.98 tbn
      Metadata:
        encoder         : Lavc61.19.100 wrapped_avframe
  Stream #0:1: Audio: pcm_s16le, 48000 Hz, stereo, s16, 1536 kb/s (default)
      Metadata:
        HANDLER_NAME    : SoundHandler
        VENDOR_ID       : [0][0][0][0]
        _STATISTICS_TAGS: BPS DURATION NUMBER_OF_FRAMES NUMBER_OF_BYTES
        BPS             : 195594
        DURATION        : 00:24:02.261000000
        NUMBER_OF_FRAMES: 67607
        NUMBER_OF_BYTES : 35262269
        _STATISTICS_WRITING_APP: mkvpropedit v66.0.0 ('Josie') 64-bit
        _STATISTICS_WRITING_DATE_UTC: 2025-05-27 09:59:55
        encoder         : Lavc61.19.100 pcm_s16le
frame=  115 fps=0.0 q=-0.0 size=N/A time=00:00:04.79 bitrate=N/A speed=9.39x    frame=  284 fps=279 q=-0.0 size=N/A time=00:00:11.84 bitrate=N/A speed=11.6x    frame=  491 fps=319 q=-0.0 size=N/A time=00:00:20.47 bitrate=N/A speed=13.3x    frame=  677 fps=330 q=-0.0 size=N/A time=00:00:28.23 bitrate=N/A speed=13.8x    frame=  874 fps=340 q=-0.0 size=N/A time=00:00:36.45 bitrate=N/A speed=14.2x    frame= 1018 fps=329 q=-0.0 size=N/A time=00:00:42.45 bitrate=N/A speed=13.7x    frame= 1227 fps=341 q=-0.0 size=N/A time=00:00:51.17 bitrate=N/A speed=14.2x    frame= 1445 fps=351 q=-0.0 size=N/A time=00:01:00.26 bitrate=N/A speed=14.6x    frame= 1653 fps=357 q=-0.0 size=N/A time=00:01:08.94 bitrate=N/A speed=14.9x    frame= 1889 fps=366 q=-0.0 size=N/A time=00:01:18.78 bitrate=N/A speed=15.3x    frame= 2089 fps=369 q=-0.0 size=N/A time=00:01:27.12 bitrate=N/A speed=15.4x    frame= 2277 fps=368 q=-0.0 size=N/A time=00:01:34.96 bitrate=N/A speed=15.4x    frame= 2450 fps=366 q=-0.0 size=N/A time=00:01:42.18 bitrate=N/A speed=15.3x    frame= 2681 fps=371 q=-0.0 size=N/A time=00:01:51.82 bitrate=N/A speed=15.5x    frame= 2839 fps=367 q=-0.0 size=N/A time=00:01:58.40 bitrate=N/A speed=15.3x    frame= 3012 fps=366 q=-0.0 size=N/A time=00:02:05.62 bitrate=N/A speed=15.3x    frame= 3265 fps=373 q=-0.0 size=N/A time=00:02:16.17 bitrate=N/A speed=15.5x    frame= 3497 fps=377 q=-0.0 size=N/A time=00:02:25.85 bitrate=N/A speed=15.7x    frame= 3767 fps=385 q=-0.0 size=N/A time=00:02:37.11 bitrate=N/A speed=  16x    frame= 3984 fps=387 q=-0.0 size=N/A time=00:02:46.16 bitrate=N/A speed=16.1x    frame= 4157 fps=384 q=-0.0 size=N/A time=00:02:53.38 bitrate=N/A speed=  16x    frame= 4402 fps=388 q=-0.0 size=N/A time=00:03:03.60 bitrate=N/A speed=16.2x    frame= 4659 fps=393 q=-0.0 size=N/A time=00:03:14.31 bitrate=N/A speed=16.4x    frame= 4863 fps=393 q=-0.0 size=N/A time=00:03:22.82 bitrate=N/A speed=16.4x    frame= 5120 fps=397 q=-0.0 size=N/A time=00:03:33.58 bitrate=N/A speed=16.6x    frame= 5382 fps=401 q=-0.0 size=N/A time=00:03:44.47 bitrate=N/A speed=16.7x    frame= 5548 fps=398 q=-0.0 size=N/A time=00:03:51.39 bitrate=N/A speed=16.6x    frame= 5751 fps=398 q=-0.0 size=N/A time=00:03:59.86 bitrate=N/A speed=16.6x    frame= 5932 fps=397 q=-0.0 size=N/A time=00:04:07.41 bitrate=N/A speed=16.5x    frame= 6119 fps=395 q=-0.0 size=N/A time=00:04:15.21 bitrate=N/A speed=16.5x    frame= 6339 fps=396 q=-0.0 size=N/A time=00:04:24.38 bitrate=N/A speed=16.5x    frame= 6511 fps=394 q=-0.0 size=N/A time=00:04:31.56 bitrate=N/A speed=16.5x    frame= 6609 fps=388 q=-0.0 size=N/A time=00:04:35.65 bitrate=N/A speed=16.2x    frame= 6810 fps=388 q=-0.0 size=N/A time=00:04:44.03 bitrate=N/A speed=16.2x    frame= 6977 fps=387 q=-0.0 size=N/A time=00:04:50.99 bitrate=N/A speed=16.1x    frame= 7169 fps=386 q=-0.0 size=N/A time=00:04:59.00 bitrate=N/A speed=16.1x    frame= 7311 fps=383 q=-0.0 size=N/A time=00:05:04.92 bitrate=N/A speed=  16x    frame= 7465 fps=381 q=-0.0 size=N/A time=00:05:11.35 bitrate=N/A speed=15.9x    frame= 7637 fps=380 q=-0.0 size=N/A time=00:05:18.52 bitrate=N/A speed=15.8x    frame= 7786 fps=377 q=-0.0 size=N/A time=00:05:24.74 bitrate=N/A speed=15.7x    frame= 7957 fps=376 q=-0.0 size=N/A time=00:05:31.87 bitrate=N/A speed=15.7x    frame= 8074 fps=373 q=-0.0 size=N/A time=00:05:36.79 bitrate=N/A speed=15.5x    frame= 8222 fps=371 q=-0.0 size=N/A time=00:05:42.92 bitrate=N/A speed=15.5x    frame= 8364 fps=369 q=-0.0 size=N/A time=00:05:48.84 bitrate=N/A speed=15.4x    frame= 8524 fps=367 q=-0.0 size=N/A time=00:05:55.52 bitrate=N/A speed=15.3x    frame= 8719 fps=367 q=-0.0 size=N/A time=00:06:03.65 bitrate=N/A speed=15.3x    frame= 8950 fps=369 q=-0.0 size=N/A time=00:06:13.28 bitrate=N/A speed=15.4x    frame= 9145 fps=369 q=-0.0 size=N/A time=00:06:21.42 bitrate=N/A speed=15.4x    frame= 9326 fps=369 q=-0.0 size=N/A time=00:06:28.97 bitrate=N/A speed=15.4x    frame= 9563 fps=371 q=-0.0 size=N/A time=00:06:38.85 bitrate=N/A speed=15.5x    frame= 9734 fps=370 q=-0.0 size=N/A time=00:06:45.98 bitrate=N/A speed=15.4x    frame= 9919 fps=370 q=-0.0 size=N/A time=00:06:53.70 bitrate=N/A speed=15.4x    frame=10105 fps=370 q=-0.0 size=N/A time=00:07:01.46 bitrate=N/A speed=15.4x    frame=10282 fps=369 q=-0.0 size=N/A time=00:07:08.84 bitrate=N/A speed=15.4x    frame=10469 fps=369 q=-0.0 size=N/A time=00:07:16.64 bitrate=N/A speed=15.4x    frame=10705 fps=371 q=-0.0 size=N/A time=00:07:26.48 bitrate=N/A speed=15.5x    frame=10906 fps=371 q=-0.0 size=N/A time=00:07:34.87 bitrate=N/A speed=15.5x    frame=11081 fps=370 q=-0.0 size=N/A time=00:07:42.17 bitrate=N/A speed=15.5x    frame=11325 fps=372 q=-0.0 size=N/A time=00:07:52.34 bitrate=N/A speed=15.5x    frame=11557 fps=373 q=-0.0 size=N/A time=00:08:02.02 bitrate=N/A speed=15.6x    frame=11778 fps=374 q=-0.0 size=N/A time=00:08:11.24 bitrate=N/A speed=15.6x    frame=11902 fps=372 q=-0.0 size=N/A time=00:08:16.41 bitrate=N/A speed=15.5x    frame=12114 fps=373 q=-0.0 size=N/A time=00:08:25.25 bitrate=N/A speed=15.5x    frame=12329 fps=374 q=-0.0 size=N/A time=00:08:34.22 bitrate=N/A speed=15.6x    frame=12540 fps=374 q=-0.0 size=N/A time=00:08:43.02 bitrate=N/A speed=15.6x    frame=12724 fps=374 q=-0.0 size=N/A time=00:08:50.69 bitrate=N/A speed=15.6x    frame=12945 fps=375 q=-0.0 size=N/A time=00:08:59.91 bitrate=N/A speed=15.6x    frame=13097 fps=373 q=-0.0 size=N/A time=00:09:06.25 bitrate=N/A speed=15.6x    frame=13297 fps=374 q=-0.0 size=N/A time=00:09:14.59 bitrate=N/A speed=15.6x    frame=13477 fps=373 q=-0.0 size=N/A time=00:09:22.10 bitrate=N/A speed=15.6x    frame=13676 fps=374 q=-0.0 size=N/A time=00:09:30.44 bitrate=N/A speed=15.6x    frame=13899 fps=374 q=-0.0 size=N/A time=00:09:39.70 bitrate=N/A speed=15.6x    frame=14127 fps=375 q=-0.0 size=N/A time=00:09:49.21 bitrate=N/A speed=15.7x    frame=14333 fps=376 q=-0.0 size=N/A time=00:09:57.80 bitrate=N/A speed=15.7x    frame=14551 fps=376 q=-0.0 size=N/A time=00:10:06.89 bitrate=N/A speed=15.7x    frame=14790 fps=377 q=-0.0 size=N/A time=00:10:16.86 bitrate=N/A speed=15.7x    frame=15011 fps=378 q=-0.0 size=N/A time=00:10:26.08 bitrate=N/A speed=15.8x    frame=15179 fps=377 q=-0.0 size=N/A time=00:10:33.09 bitrate=N/A speed=15.7x    frame=15345 fps=377 q=-0.0 size=N/A time=00:10:40.01 bitrate=N/A speed=15.7x    frame=15546 fps=377 q=-0.0 size=N/A time=00:10:48.39 bitrate=N/A speed=15.7x    frame=15695 fps=376 q=-0.0 size=N/A time=00:10:54.61 bitrate=N/A speed=15.7x    frame=15835 fps=374 q=-0.0 size=N/A time=00:11:00.45 bitrate=N/A speed=15.6x    frame=16039 fps=375 q=-0.0 size=N/A time=00:11:08.95 bitrate=N/A speed=15.6x    frame=16204 fps=374 q=-0.0 size=N/A time=00:11:15.84 bitrate=N/A speed=15.6x    frame=16399 fps=374 q=-0.0 size=N/A time=00:11:23.97 bitrate=N/A speed=15.6x    frame=16538 fps=373 q=-0.0 size=N/A time=00:11:29.77 bitrate=N/A speed=15.6x    frame=16751 fps=373 q=-0.0 size=N/A time=00:11:38.65 bitrate=N/A speed=15.6x    frame=16944 fps=373 q=-0.0 size=N/A time=00:11:46.70 bitrate=N/A speed=15.6x    frame=17154 fps=374 q=-0.0 size=N/A time=00:11:55.46 bitrate=N/A speed=15.6x    frame=17395 fps=375 q=-0.0 size=N/A time=00:12:05.51 bitrate=N/A speed=15.6x    frame=17599 fps=375 q=-0.0 size=N/A time=00:12:14.02 bitrate=N/A speed=15.6x    frame=17831 fps=376 q=-0.0 size=N/A time=00:12:23.70 bitrate=N/A speed=15.7x    frame=18028 fps=376 q=-0.0 size=N/A time=00:12:31.91 bitrate=N/A speed=15.7x    frame=18236 fps=376 q=-0.0 size=N/A time=00:12:40.59 bitrate=N/A speed=15.7x    frame=18404 fps=376 q=-0.0 size=N/A time=00:12:47.60 bitrate=N/A speed=15.7x    frame=18583 fps=375 q=-0.0 size=N/A time=00:12:55.06 bitrate=N/A speed=15.7x    frame=18804 fps=376 q=-0.0 size=N/A time=00:13:04.28 bitrate=N/A speed=15.7x    frame=19004 fps=376 q=-0.0 size=N/A time=00:13:12.62 bitrate=N/A speed=15.7x    frame=19195 fps=376 q=-0.0 size=N/A time=00:13:20.59 bitrate=N/A speed=15.7x    frame=19374 fps=376 q=-0.0 size=N/A time=00:13:28.05 bitrate=N/A speed=15.7x    frame=19546 fps=375 q=-0.0 size=N/A time=00:13:35.23 bitrate=N/A speed=15.6x    frame=19760 fps=376 q=-0.0 size=N/A time=00:13:44.15 bitrate=N/A speed=15.7x    frame=19974 fps=376 q=-0.0 size=N/A time=00:13:53.08 bitrate=N/A speed=15.7x    frame=20146 fps=376 q=-0.0 size=N/A time=00:14:00.25 bitrate=N/A speed=15.7x    frame=20306 fps=375 q=-0.0 size=N/A time=00:14:06.92 bitrate=N/A speed=15.6x    frame=20478 fps=375 q=-0.0 size=N/A time=00:14:14.10 bitrate=N/A speed=15.6x    frame=20660 fps=374 q=-0.0 size=N/A time=00:14:21.69 bitrate=N/A speed=15.6x    frame=20775 fps=373 q=-0.0 size=N/A time=00:14:26.49 bitrate=N/A speed=15.6x    frame=20965 fps=373 q=-0.0 size=N/A time=00:14:34.41 bitrate=N/A speed=15.6x    frame=21102 fps=372 q=-0.0 size=N/A time=00:14:40.12 bitrate=N/A speed=15.5x    frame=21326 fps=373 q=-0.0 size=N/A time=00:14:49.47 bitrate=N/A speed=15.5x    frame=21508 fps=372 q=-0.0 size=N/A time=00:14:57.06 bitrate=N/A speed=15.5x    frame=21658 fps=372 q=-0.0 size=N/A time=00:15:03.31 bitrate=N/A speed=15.5x    frame=21812 fps=371 q=-0.0 size=N/A time=00:15:09.74 bitrate=N/A speed=15.5x    frame=21998 fps=371 q=-0.0 size=N/A time=00:15:17.49 bitrate=N/A speed=15.5x    frame=22143 fps=370 q=-0.0 size=N/A time=00:15:23.54 bitrate=N/A speed=15.4x    frame=22307 fps=370 q=-0.0 size=N/A time=00:15:30.38 bitrate=N/A speed=15.4x    frame=22510 fps=370 q=-0.0 size=N/A time=00:15:38.85 bitrate=N/A speed=15.4x    frame=22695 fps=370 q=-0.0 size=N/A time=00:15:46.57 bitrate=N/A speed=15.4x    frame=22898 fps=370 q=-0.0 size=N/A time=00:15:55.03 bitrate=N/A speed=15.4x    frame=23089 fps=370 q=-0.0 size=N/A time=00:16:03.00 bitrate=N/A speed=15.4x    frame=23255 fps=370 q=-0.0 size=N/A time=00:16:09.92 bitrate=N/A speed=15.4x    frame=23420 fps=369 q=-0.0 size=N/A time=00:16:16.80 bitrate=N/A speed=15.4x    frame=23636 fps=370 q=-0.0 size=N/A time=00:16:25.81 bitrate=N/A speed=15.4x    frame=23830 fps=370 q=-0.0 size=N/A time=00:16:33.90 bitrate=N/A speed=15.4x    frame=24004 fps=369 q=-0.0 size=N/A time=00:16:41.16 bitrate=N/A speed=15.4x    frame=24185 fps=369 q=-0.0 size=N/A time=00:16:48.71 bitrate=N/A speed=15.4x    frame=24355 fps=369 q=-0.0 size=N/A time=00:16:55.80 bitrate=N/A speed=15.4x    frame=24572 fps=369 q=-0.0 size=N/A time=00:17:04.85 bitrate=N/A speed=15.4x    frame=24787 fps=370 q=-0.0 size=N/A time=00:17:13.82 bitrate=N/A speed=15.4x    frame=24990 fps=370 q=-0.0 size=N/A time=00:17:22.29 bitrate=N/A speed=15.4x    frame=25178 fps=370 q=-0.0 size=N/A time=00:17:30.13 bitrate=N/A speed=15.4x    frame=25373 fps=370 q=-0.0 size=N/A time=00:17:38.26 bitrate=N/A speed=15.4x    frame=25640 fps=371 q=-0.0 size=N/A time=00:17:49.40 bitrate=N/A speed=15.5x    frame=25879 fps=372 q=-0.0 size=N/A time=00:17:59.36 bitrate=N/A speed=15.5x    frame=26128 fps=373 q=-0.0 size=N/A time=00:18:09.75 bitrate=N/A speed=15.5x    frame=26338 fps=373 q=-0.0 size=N/A time=00:18:18.51 bitrate=N/A speed=15.5x    frame=26597 fps=374 q=-0.0 size=N/A time=00:18:29.31 bitrate=N/A speed=15.6x    frame=26829 fps=374 q=-0.0 size=N/A time=00:18:38.99 bitrate=N/A speed=15.6x    frame=27077 fps=375 q=-0.0 size=N/A time=00:18:49.33 bitrate=N/A speed=15.6x    frame=27321 fps=376 q=-0.0 size=N/A time=00:18:59.51 bitrate=N/A speed=15.7x    frame=27571 fps=377 q=-0.0 size=N/A time=00:19:09.94 bitrate=N/A speed=15.7x    frame=27849 fps=378 q=-0.0 size=N/A time=00:19:21.53 bitrate=N/A speed=15.7x    frame=28095 fps=378 q=-0.0 size=N/A time=00:19:31.79 bitrate=N/A speed=15.8x    frame=28323 fps=379 q=-0.0 size=N/A time=00:19:41.30 bitrate=N/A speed=15.8x    frame=28568 fps=379 q=-0.0 size=N/A time=00:19:51.52 bitrate=N/A speed=15.8x    frame=28814 fps=380 q=-0.0 size=N/A time=00:20:01.78 bitrate=N/A speed=15.9x    frame=29080 fps=381 q=-0.0 size=N/A time=00:20:12.87 bitrate=N/A speed=15.9x    frame=29334 fps=382 q=-0.0 size=N/A time=00:20:23.47 bitrate=N/A speed=15.9x    frame=29549 fps=382 q=-0.0 size=N/A time=00:20:32.43 bitrate=N/A speed=15.9x    frame=29799 fps=383 q=-0.0 size=N/A time=00:20:42.86 bitrate=N/A speed=  16x    frame=30056 fps=383 q=-0.0 size=N/A time=00:20:53.58 bitrate=N/A speed=  16x    frame=30319 fps=384 q=-0.0 size=N/A time=00:21:04.55 bitrate=N/A speed=  16x    frame=30529 fps=384 q=-0.0 size=N/A time=00:21:13.31 bitrate=N/A speed=  16x    frame=30771 fps=385 q=-0.0 size=N/A time=00:21:23.40 bitrate=N/A speed=16.1x    frame=31007 fps=385 q=-0.0 size=N/A time=00:21:33.25 bitrate=N/A speed=16.1x    frame=31262 fps=386 q=-0.0 size=N/A time=00:21:43.88 bitrate=N/A speed=16.1x    frame=31512 fps=387 q=-0.0 size=N/A time=00:21:54.31 bitrate=N/A speed=16.1x    frame=31768 fps=387 q=-0.0 size=N/A time=00:22:05.03 bitrate=N/A speed=16.2x    frame=32018 fps=388 q=-0.0 size=N/A time=00:22:15.41 bitrate=N/A speed=16.2x    frame=32241 fps=388 q=-0.0 size=N/A time=00:22:24.71 bitrate=N/A speed=16.2x    frame=32455 fps=388 q=-0.0 size=N/A time=00:22:33.64 bitrate=N/A speed=16.2x    frame=32652 fps=388 q=-0.0 size=N/A time=00:22:41.86 bitrate=N/A speed=16.2x    frame=32867 fps=389 q=-0.0 size=N/A time=00:22:50.82 bitrate=N/A speed=16.2x    frame=33087 fps=389 q=-0.0 size=N/A time=00:23:00.00 bitrate=N/A speed=16.2x    frame=33297 fps=389 q=-0.0 size=N/A time=00:23:08.76 bitrate=N/A speed=16.2x    frame=33513 fps=389 q=-0.0 size=N/A time=00:23:17.77 bitrate=N/A speed=16.2x    frame=33722 fps=389 q=-0.0 size=N/A time=00:23:26.48 bitrate=N/A speed=16.2x    frame=33949 fps=390 q=-0.0 size=N/A time=00:23:35.95 bitrate=N/A speed=16.2x    frame=34156 fps=390 q=-0.0 size=N/A time=00:23:44.58 bitrate=N/A speed=16.3x    frame=34388 fps=390 q=-0.0 size=N/A time=00:23:54.26 bitrate=N/A speed=16.3x    [Parsed_psnr_10 @ 000002956287d2c0] PSNR y:46.988650 u:49.572943 v:49.375944 average:47.670125 min:38.423376 max:inf
[out#0/null @ 00000295613b0700] video:14857KiB audio:270428KiB subtitle:0KiB other streams:0KiB global headers:0KiB muxing overhead: unknown
frame=34577 fps=390 q=-0.0 Lsize=N/A time=00:24:02.14 bitrate=N/A speed=16.3x    
